HIERARCHY
ROOT Hips
{
  OFFSET 5.80788e-005 67.184 3.4734
  CHANNELS 6 Xposition Yposition Zposition Zrotation Xrotation Yrotation
  JOINT Chest
  {
    OFFSET 0 8.7983 -4.7612
    CHANNELS 3 Zrotation Xrotation Yrotation
    JOINT Chest2
    {
      OFFSET 0 8.0291 0.4195
      CHANNELS 3 Zrotation Xrotation Yrotation
      JOINT Chest3
      {
        OFFSET 0 9.9351 -2.2114
        CHANNELS 3 Zrotation Xrotation Yrotation
        JOINT Neck
        {
          OFFSET 0 22.3885 -0.4656
          CHANNELS 3 Zrotation Xrotation Yrotation
          JOINT Head
          {
            OFFSET -0.0001 12.643 3.4389
            CHANNELS 3 Zrotation Xrotation Yrotation
            End Site
            {
              OFFSET 0.0001 17.6655 0.5274
            }
          }
        }
        JOINT LeftCollar
        {
          OFFSET 2.2603 21.606 7.4023
          CHANNELS 3 Zrotation Xrotation Yrotation
          JOINT LeftShoulder
          {
            OFFSET 13.5163 -1.1332 -5.0146
            CHANNELS 3 Zrotation Xrotation Yrotation
            JOINT LeftElbow
            {
              OFFSET -0.0995 -28.05 -0.2431
              CHANNELS 3 Zrotation Xrotation Yrotation
              JOINT LeftWrist
              {
                OFFSET 0.0679 -23.3996 -0.1402
                CHANNELS 3 Zrotation Xrotation Yrotation
                JOINT LeftFinger1
                {
                  OFFSET 0.7932 -9.069 2.5189
                  CHANNELS 3 Zrotation Xrotation Yrotation
                  JOINT LeftFinger11
                  {
                    OFFSET -0.8272 -3.3923 0.5977
                    CHANNELS 3 Zrotation Xrotation Yrotation
                    JOINT LeftFinger12
                    {
                      OFFSET -0.5649 -2.3158 0.4082
                      CHANNELS 3 Zrotation Xrotation Yrotation
                      End Site
                      {
                        OFFSET -0.4919 -1.6479 0.2673
                      }
                    }
                  }
                }
                JOINT LeftFinger2
                {
                  OFFSET 0.9159 -9.2044 0.2193
                  CHANNELS 3 Zrotation Xrotation Yrotation
                  JOINT LeftFinger21
                  {
                    OFFSET 0.0117 -4.1944 -0.0248
                    CHANNELS 3 Zrotation Xrotation Yrotation
                    JOINT LeftFinger22
                    {
                      OFFSET 0.0071 -2.3249 -0.0142
                      CHANNELS 3 Zrotation Xrotation Yrotation
                      End Site
                      {
                        OFFSET -0.1475 -2.0882 0.0028
                      }
                    }
                  }
                }
                JOINT LeftFinger3
                {
                  OFFSET 0.6113 -8.7231 -2.0637
                  CHANNELS 3 Zrotation Xrotation Yrotation
                  JOINT LeftFinger31
                  {
                    OFFSET -0.1927 -3.8059 -0.2383
                    CHANNELS 3 Zrotation Xrotation Yrotation
                    JOINT LeftFinger32
                    {
                      OFFSET -0.1091 -2.1688 -0.1362
                      CHANNELS 3 Zrotation Xrotation Yrotation
                      End Site
                      {
                        OFFSET -0.2358 -1.9176 -0.0906
                      }
                    }
                  }
                }
                JOINT LeftFinger4
                {
                  OFFSET -0.6151 -8.0947 -3.5641
                  CHANNELS 3 Zrotation Xrotation Yrotation
                  JOINT LeftFinger41
                  {
                    OFFSET -0.4882 -2.341 -0.6462
                    CHANNELS 3 Zrotation Xrotation Yrotation
                    JOINT LeftFinger42
                    {
                      OFFSET -0.3575 -1.7167 -0.4742
                      CHANNELS 3 Zrotation Xrotation Yrotation
                      End Site
                      {
                        OFFSET -0.4187 -1.5237 -0.3496
                      }
                    }
                  }
                }
                JOINT LeftFinger0
                {
                  OFFSET -1.42 -1.8761 1.4223
                  CHANNELS 3 Zrotation Xrotation Yrotation
                  JOINT LeftFinger01
                  {
                    OFFSET -1.1471 -3.4929 2.6334
                    CHANNELS 3 Zrotation Xrotation Yrotation
                    JOINT LeftFinger02
                    {
                      OFFSET -0.823 -2.3 1.6571
                      CHANNELS 3 Zrotation Xrotation Yrotation
                      End Site
                      {
                        OFFSET -0.5822 -1.6914 1.1582
                      }
                    }
                  }
                }
              }
            }
          }
        }
        JOINT RightCollar
        {
          OFFSET -2.2603 21.606 7.4023
          CHANNELS 3 Zrotation Xrotation Yrotation
          JOINT RightShoulder
          {
            OFFSET -13.5187 -1.1334 -5.0155
            CHANNELS 3 Zrotation Xrotation Yrotation
            JOINT RightElbow
            {
              OFFSET 0.0994 -28.0499 -0.2431
              CHANNELS 3 Zrotation Xrotation Yrotation
              JOINT RightWrist
              {
                OFFSET -0.0679 -23.3996 -0.1402
                CHANNELS 3 Zrotation Xrotation Yrotation
                JOINT RightFinger1
                {
                  OFFSET -0.7932 -9.0691 2.5189
                  CHANNELS 3 Zrotation Xrotation Yrotation
                  JOINT RightFinger11
                  {
                    OFFSET 0.8272 -3.3923 0.5977
                    CHANNELS 3 Zrotation Xrotation Yrotation
                    JOINT RightFinger12
                    {
                      OFFSET 0.565 -2.3158 0.4082
                      CHANNELS 3 Zrotation Xrotation Yrotation
                      End Site
                      {
                        OFFSET 0.4919 -1.6479 0.2673
                      }
                    }
                  }
                }
                JOINT RightFinger2
                {
                  OFFSET -0.916 -9.2044 0.2193
                  CHANNELS 3 Zrotation Xrotation Yrotation
                  JOINT RightFinger21
                  {
                    OFFSET -0.0117 -4.1944 -0.0248
                    CHANNELS 3 Zrotation Xrotation Yrotation
                    JOINT RightFinger22
                    {
                      OFFSET -0.0071 -2.3249 -0.0142
                      CHANNELS 3 Zrotation Xrotation Yrotation
                      End Site
                      {
                        OFFSET 0.1475 -2.0882 0.0028
                      }
                    }
                  }
                }
                JOINT RightFinger3
                {
                  OFFSET -0.6113 -8.7231 -2.0637
                  CHANNELS 3 Zrotation Xrotation Yrotation
                  JOINT RightFinger31
                  {
                    OFFSET 0.1927 -3.8059 -0.2383
                    CHANNELS 3 Zrotation Xrotation Yrotation
                    JOINT RightFinger32
                    {
                      OFFSET 0.1091 -2.1688 -0.1362
                      CHANNELS 3 Zrotation Xrotation Yrotation
                      End Site
                      {
                        OFFSET 0.2358 -1.9176 -0.0906
                      }
                    }
                  }
                }
                JOINT RightFinger4
                {
                  OFFSET 0.6151 -8.0947 -3.564
                  CHANNELS 3 Zrotation Xrotation Yrotation
                  JOINT RightFinger41
                  {
                    OFFSET 0.4882 -2.341 -0.6462
                    CHANNELS 3 Zrotation Xrotation Yrotation
                    JOINT RightFinger42
                    {
                      OFFSET 0.3574 -1.7166 -0.4742
                      CHANNELS 3 Zrotation Xrotation Yrotation
                      End Site
                      {
                        OFFSET 0.4187 -1.5237 -0.3496
                      }
                    }
                  }
                }
                JOINT RightFinger0
                {
                  OFFSET 1.4199 -1.8761 1.4221
                  CHANNELS 3 Zrotation Xrotation Yrotation
                  JOINT RightFinger01
                  {
                    OFFSET 1.1472 -3.4929 2.6336
                    CHANNELS 3 Zrotation Xrotation Yrotation
                    JOINT RightFinger02
                    {
                      OFFSET 0.8229 -2.3 1.6571
                      CHANNELS 3 Zrotation Xrotation Yrotation
                      End Site
                      {
                        OFFSET 0.5822 -1.6914 1.1582
                      }
                    }
                  }
                }
              }
            }
          }
        }
      }
    }
  }
  JOINT RightHip
  {
    OFFSET -9.412 3.9771 -0.7758
    CHANNELS 3 Zrotation Xrotation Yrotation
    JOINT RightKnee
    {
      OFFSET -0.7531 -40.938 0
      CHANNELS 3 Zrotation Xrotation Yrotation
      JOINT RightAnkle
      {
        OFFSET 0 -40.1986 0
        CHANNELS 3 Zrotation Xrotation Yrotation
        JOINT RightToe
        {
          OFFSET 0 -4.4182 9.239
          CHANNELS 3 Zrotation Xrotation Yrotation
          End Site
          {
            OFFSET 0 0 6.1981
          }
        }
      }
    }
  }
  JOINT LeftHip
  {
    OFFSET 9.4119 3.9773 -0.7758
    CHANNELS 3 Zrotation Xrotation Yrotation
    JOINT LeftKnee
    {
      OFFSET 0.7532 -40.9383 0
      CHANNELS 3 Zrotation Xrotation Yrotation
      JOINT LeftAnkle
      {
        OFFSET 0 -40.1986 0
        CHANNELS 3 Zrotation Xrotation Yrotation
        JOINT LeftToe
        {
          OFFSET 0 -4.4182 9.239
          CHANNELS 3 Zrotation Xrotation Yrotation
          End Site
          {
            OFFSET 0 0 6.1981
          }
        }
      }
    }
  }
}
MOTION
Frames:	6
Frame Time:	0.0333333
5.80788e-005 -19.5443 3.4734 0 0 -0 0 0 -0 0 0 -0 0 0 -0 0 0 -0 0 0 -0 0 0 -12.5014 88.1196 14.2451 10.6914 -0.00160068 -0.00239207 0.000740045 -8.4365e-005 7.00714e-005 -9.52055e-007 9.93923e-017 -1.98785e-016 -1.59028e-015 9.93923e-017 -5.96354e-016 -1.59028e-015 -9.93923e-017 -5.96354e-016 -1.59028e-015 9.93923e-017 -1.98785e-016 -1.59028e-015 -0.0128176 0.00232552 8.52707e-005 9.93923e-017 5.96354e-016 -0 9.93923e-017 -1.98785e-016 -1.59028e-015 -0.0160551 0.00299681 0.000857156 -2.48481e-016 0 3.18055e-015 9.93923e-017 -1.98785e-016 -1.59028e-015 -0.0125865 0.0031206 0.00282719 0 1.98785e-016 -0 9.93923e-017 -1.98785e-016 -1.59028e-015 9.93923e-017 -5.96354e-016 -1.59028e-015 -9.93923e-017 -5.96354e-016 -1.59028e-015 -0.865644 0.16582 7.03859 -88.0329 10.2057 -10.5567 0.0015593 -0.00248883 -0.000788628 7.87605e-005 4.10553e-005 1.24965e-005 -3.97569e-016 -7.95139e-016 3.18055e-015 -1.98785e-016 -3.97569e-016 3.18055e-015 -1.98785e-016 0 3.18055e-015 -3.97569e-016 -7.95139e-016 3.18055e-015 0.0129473 0.00231697 -8.70038e-005 9.93923e-017 -7.95139e-016 1.59028e-015 -3.97569e-016 -7.95139e-016 3.18055e-015 0.0163314 0.00303369 -0.000872333 3.97569e-016 7.95139e-016 -3.18055e-015 -3.97569e-016 -7.95139e-016 3.18055e-015 0.0145763 0.00367772 -0.00326275 9.93923e-017 -3.97569e-016 -0 -3.97569e-016 -7.95139e-016 3.18055e-015 -1.98785e-016 -3.97569e-016 3.18055e-015 -1.98785e-016 0 3.18055e-015 3.4248 1.369 -0.0640251 0.000190474 0.692919 0.00145812 -3.42573 -2.06197 -0.0607404 -3.36159e-023 -4.7394e-023 7.40531e-025 -3.425 1.38128 0.0641622 -6.96856e-005 0.67204 -0.00171278 3.42579 -2.05339 0.0603494 1.04539e-024 1.18485e-023 -0 
0.00574257 -19.892 0.71248 1.15054e-007 15.997 1.73889e-008 -0.255166 6.46461 -0.171628 -0.495478 12.9299 -0.317124 -0.49548 12.93 -0.317124 1.62644e-006 6.99679 8.47438e-007 -1.0816e-006 17.9984 1.10277e-008 2.97586 -2.57709 -8.96446 9.26032 5.18806 24.6272 -22.1525 3.95032 -4.8521 -5.44698 -28.2955 -4.13168 0 9.54166e-015 -0 0 9.54166e-015 -0 3.18055e-015 9.54166e-015 1.59028e-015 0 9.54166e-015 -0 -0.0128133 0.00232344 8.19203e-005 1.59028e-015 0 4.77083e-015 0 9.54166e-015 -0 -0.016052 0.00299787 0.000857992 0 0 -1.59028e-015 0 9.54166e-015 -0 -0.0125756 0.00312057 0.00282599 1.59028e-015 -6.36111e-015 -1.59028e-015 0 9.54166e-015 -0 0 9.54166e-015 -0 3.18055e-015 9.54166e-015 1.59028e-015 10.9311 -1.63459 2.21884 -16.3295 8.66529 -18.5207 9.91734 1.84034 3.12402 10.8687 -24.4162 3.57452 -3.91621e-007 -4.73584e-008 1.6315e-006 1.76556e-031 -3.18055e-015 3.18055e-015 0 6.36111e-015 -0 -3.91621e-007 -4.73584e-008 1.6315e-006 0.0129462 0.00231266 -8.43193e-005 3.53113e-031 -6.36111e-015 3.18055e-015 -3.91621e-007 -4.73584e-008 1.6315e-006 0.0163385 0.00303605 -0.000872021 2.82279e-006 8.26694e-008 3.30998e-006 -3.91621e-007 -4.73584e-008 1.6315e-006 0.0145866 0.00368791 -0.00326611 -0 -3.18055e-015 -0 -3.91621e-007 -4.73584e-008 1.6315e-006 1.76556e-031 -3.18055e-015 3.18055e-015 0 6.36111e-015 -0 1.68024 -11.8967 -14.2079 -134.732 81.209 132.978 11.0813 25.0757 -13.8808 1.14498e-006 -1.09651e-005 -1.39293e-007 -1.49984 -13.2925 14.0388 113.559 82.4459 -112.326 -27.2273 52.3661 47.711 -2.15641e-006 -8.5818e-007 -9.74054e-007 
0.00585605 -19.9122 0.45581 -1.23926e-007 16.7732 9.24462e-008 -0.255059 5.89673 -0.172983 -0.496084 11.7942 -0.321991 -0.496085 11.7942 -0.321992 -5.13183e-007 6.60833 -9.37374e-007 -1.022e-008 17.0019 -5.9682e-009 3.29313 -0.637572 -8.73306 9.26051 5.18816 24.6272 -22.5516 4.01568 -4.97764 -5.32573 -28.2364 -4.60783 -7.95139e-016 3.18055e-015 -1.59028e-015 7.95139e-016 3.18055e-015 -0 1.59028e-015 3.18055e-015 -0 -7.95139e-016 3.18055e-015 -1.59028e-015 -0.0128277 0.00232623 8.73119e-005 7.95139e-016 3.18055e-015 3.18055e-015 -7.95139e-016 3.18055e-015 -1.59028e-015 -0.0160567 0.00299859 0.000860444 1.59028e-015 -9.54166e-015 -3.18055e-015 -7.95139e-016 3.18055e-015 -1.59028e-015 -0.0125723 0.00311281 0.00282534 1.76556e-031 6.36111e-015 -1.59028e-015 -7.95139e-016 3.18055e-015 -1.59028e-015 7.95139e-016 3.18055e-015 -0 1.59028e-015 3.18055e-015 -0 10.1785 0.305812 1.6642 -15.9173 8.69685 -18.5827 10.2142 1.89195 3.15986 10.7983 -24.2761 4.06674 1.31849e-006 2.7928e-006 3.67454e-006 5.29669e-031 9.54166e-015 -3.18055e-015 3.18055e-015 6.36111e-015 -6.36111e-015 1.31849e-006 2.7928e-006 3.67454e-006 0.012952 0.00231297 -8.46642e-005 -0 -6.36111e-015 -0 1.31849e-006 2.7928e-006 3.67454e-006 0.0163409 0.00302878 -0.000874397 -1.59028e-015 0 1.59028e-015 1.31849e-006 2.7928e-006 3.67454e-006 0.0145919 0.00368246 -0.00325851 -3.18055e-015 3.18055e-015 -4.77083e-015 1.31849e-006 2.7928e-006 3.67454e-006 5.29669e-031 9.54166e-015 -3.18055e-015 3.18055e-015 6.36111e-015 -6.36111e-015 1.63804 -13.0459 -14.2743 -135.263 81.1295 133.489 11.0816 25.077 -13.8823 1.59028e-015 9.54166e-015 -2.38542e-015 -1.47046 -14.3472 14.1139 115.49 82.2957 -114.224 -27.242 52.3603 47.7273 -2.881e-006 6.90849e-007 1.1115e-006 
0.00596382 -19.9309 0.198837 -3.77892e-008 17.5501 5.02902e-008 -0.254735 5.31441 -0.17427 -0.49638 10.6295 -0.326813 -0.496381 10.6296 -0.326814 -4.37725e-007 6.21974 -4.54268e-007 2.11827e-007 16.0042 -7.02005e-008 3.60414 1.31259 -8.51129 9.2607 5.18825 24.6272 -22.9499 4.08071 -5.10666 -5.20381 -28.1781 -5.08381 -1.13813e-007 -1.35685e-006 1.71906e-006 -5.15066e-007 -2.53316e-006 1.57847e-006 -1.17796e-005 6.51226e-006 -6.73427e-006 -1.13813e-007 -1.35685e-006 1.71906e-006 -0.0128006 0.00232155 8.68139e-005 -9.11468e-006 3.6427e-007 -4.95299e-006 -1.13813e-007 -1.35685e-006 1.71906e-006 -0.0160634 0.00299696 0.000858117 -5.35836e-006 3.49664e-006 -4.48517e-006 -1.13813e-007 -1.35685e-006 1.71906e-006 -0.012572 0.00311857 0.00282711 -1.24383e-005 4.12651e-006 -4.35901e-006 -1.13813e-007 -1.35685e-006 1.71906e-006 -5.15066e-007 -2.53316e-006 1.57847e-006 -1.17796e-005 6.51226e-006 -6.73427e-006 9.43997 2.26453 1.13168 -15.5049 8.72801 -18.645 10.511 1.94347 3.19665 10.7267 -24.1365 4.55876 0 0 -1.59028e-015 -1.59028e-015 -3.18055e-015 -0 8.82781e-032 3.18055e-015 -1.59028e-015 0 0 -1.59028e-015 0.0129468 0.00230773 -8.11004e-005 1.59028e-015 -9.54166e-015 3.18055e-015 0 0 -1.59028e-015 0.0163423 0.00303052 -0.000871955 -3.53113e-031 -6.36111e-015 -3.18055e-015 0 0 -1.59028e-015 0.0145857 0.00367269 -0.00325554 -1.59028e-015 3.18055e-015 -0 0 0 -1.59028e-015 -1.59028e-015 -3.18055e-015 -0 8.82781e-032 3.18055e-015 -1.59028e-015 1.59461 -14.1018 -14.3435 -135.342 81.1138 133.567 11.082 25.0784 -13.8837 3.18454e-006 7.14235e-006 -1.6401e-006 -1.43987 -15.4373 14.1894 117.566 82.1227 -116.262 -27.2567 52.3546 47.7437 -1.44047e-006 -1.69659e-006 5.5505e-007 
0.00607247 -19.9482 -0.0583993 0 18.3274 -0 -0.254167 4.71893 -0.175474 -0.496315 9.43858 -0.331556 -0.496316 9.43861 -0.331557 -2.47055e-006 5.83113 -1.87322e-006 -5.47508e-007 15.0055 -1.85932e-007 3.90929 3.27238 -8.29895 9.2608 5.18834 24.6273 -23.3474 4.14541 -5.23919 -5.08138 -28.1206 -5.55975 7.95139e-016 -9.54166e-015 -1.59028e-015 -1.76556e-031 -6.36111e-015 -1.59028e-015 2.38542e-015 -3.18055e-015 -1.59028e-015 7.95139e-016 -9.54166e-015 -1.59028e-015 -0.0128036 0.00232274 8.73529e-005 -1.59028e-015 0 1.59028e-015 7.95139e-016 -9.54166e-015 -1.59028e-015 -0.0160494 0.0029974 0.00086046 -3.97569e-015 0 1.59028e-015 7.95139e-016 -9.54166e-015 -1.59028e-015 -0.0125904 0.00312128 0.00283157 -1.76556e-031 -6.36111e-015 -1.59028e-015 7.95139e-016 -9.54166e-015 -1.59028e-015 -1.76556e-031 -6.36111e-015 -1.59028e-015 2.38542e-015 -3.18055e-015 -1.59028e-015 8.71462 4.24002 0.620928 -15.0924 8.75872 -18.7075 10.8076 1.99491 3.23435 10.6538 -23.9975 5.05062 -1.76556e-031 -3.18055e-015 -3.18055e-015 1.59028e-015 0 -1.59028e-015 1.59028e-015 3.18055e-015 -0 -1.76556e-031 -3.18055e-015 -3.18055e-015 0.0129463 0.00231818 -8.46852e-005 1.59028e-015 0 -9.54166e-015 -1.76556e-031 -3.18055e-015 -3.18055e-015 0.0163257 0.00304238 -0.000871012 -6.86906e-006 -6.93578e-006 -2.84195e-006 -1.76556e-031 -3.18055e-015 -3.18055e-015 0.0145898 0.00368501 -0.00326288 -1.59028e-015 0 4.77083e-015 -1.76556e-031 -3.18055e-015 -3.18055e-015 1.59028e-015 0 -1.59028e-015 1.59028e-015 3.18055e-015 -0 1.54957 -15.1997 -14.4132 -135.612 81.0703 133.827 11.0823 25.0798 -13.8851 -3.66401e-006 3.22647e-006 2.39415e-007 -1.40759 -16.0656 14.2742 116.579 82.1437 -115.321 -27.2714 52.3488 47.76 2.0837e-006 5.01692e-006 6.7698e-007 
0.00617553 -19.964 -0.315871 -8.90399e-008 19.1051 -1.80338e-008 -0.253385 4.1118 -0.176591 -0.495949 8.22435 -0.3362 -0.495949 8.22436 -0.3362 -3.82042e-006 5.44245 -3.05123e-006 -2.60101e-007 14.0058 -5.02492e-007 4.20903 5.24049 -8.09582 9.26103 5.18846 24.6273 -23.7442 4.20977 -5.37531 -4.95824 -28.0639 -6.03539 -8.82781e-032 3.18055e-015 1.59028e-015 -8.82781e-032 3.18055e-015 1.59028e-015 7.95139e-016 3.18055e-015 -0 -8.82781e-032 3.18055e-015 1.59028e-015 -0.0128235 0.00232066 8.30622e-005 -2.38542e-015 0 1.59028e-015 -8.82781e-032 3.18055e-015 1.59028e-015 -0.0160357 0.00299141 0.000858358 -7.95139e-016 0 1.59028e-015 -8.82781e-032 3.18055e-015 1.59028e-015 -0.0125994 0.00312252 0.00283267 -2.38542e-015 3.18055e-015 -0 -8.82781e-032 3.18055e-015 1.59028e-015 -8.82781e-032 3.18055e-015 1.59028e-015 7.95139e-016 3.18055e-015 -0 8.00162 6.23048 0.131654 -14.6798 8.78898 -18.7703 11.1042 2.0463 3.273 10.5797 -23.859 5.54225 -0 0 3.18055e-015 -1.76556e-031 3.18055e-015 3.18055e-015 -1.59028e-015 0 -1.59028e-015 -0 0 3.18055e-015 0.0129528 0.0023119 -8.3159e-005 1.59028e-015 0 -1.59028e-015 -0 0 3.18055e-015 0.0163286 0.00303704 -0.000875748 3.18055e-015 -3.18055e-015 1.59028e-015 -0 0 3.18055e-015 0.0145655 0.00367549 -0.00325745 -6.36111e-015 -3.18055e-015 7.95139e-015 -0 0 3.18055e-015 -1.76556e-031 3.18055e-015 3.18055e-015 -1.59028e-015 0 -1.59028e-015 1.50304 -16.0269 -14.489 -134.604 81.2102 132.862 11.0827 25.0812 -13.8865 1.79917e-006 2.26169e-006 3.5667e-007 -1.37462 -17.4669 14.3461 120.517 81.8225 -119.162 -27.2861 52.3429 47.7763 7.11948e-007 -1.94261e-007 1.53314e-006 
